<?xml version="1.0" encoding="UTF-8" standalone="no"?><!--Uploaded to: SVG Repo, www.svgrepo.com, Generator: SVG Repo Mixer Tools--><svg xmlns="http://www.w3.org/2000/svg" width="800" height="800" viewBox="0 0 32 32"><path fill="#000" fill-rule="evenodd" d="M16 26c-1.17 0-2.3-.14-3.38-.37l-4.7 2.83.05-4.64C4.37 21.65 2 18.07 2 14 2 7.37 8.27 2 16 2s14 5.37 14 12-6.27 12-14 12Zm0-26C7.16 0 0 6.27 0 14c0 4.42 2.34 8.35 6 10.92V32l7-4.25c.98.16 1.98.25 3 .25 8.84 0 16-6.27 16-14S24.84 0 16 0Z"/></svg>