<?xml version="1.0" encoding="utf-8"?><!--Uploaded to: SVG Repo, www.svgrepo.com, Generator: SVG Repo Mixer Tools--><svg xmlns="http://www.w3.org/2000/svg" width="800" height="800" aria-hidden="true" class="iconify iconify--twemoji" viewBox="0 0 36 36"><ellipse cx="8.83" cy="18" fill="#F5F8FA" rx="7.95" ry="13.28"/><path fill="#E1E8ED" d="M8.83 32.03C3.95 32.03.13 25.87.13 18S3.94 3.97 8.82 3.97s8.7 6.16 8.7 14.03-3.82 14.03-8.7 14.03zm0-26.56c-3.97 0-7.2 5.62-7.2 12.53s3.23 12.53 7.2 12.53 7.2-5.62 7.2-12.53S12.8 5.47 8.83 5.47z"/><circle cx="6.59" cy="18" r="4.96" fill="#8899A6"/><circle cx="6.59" cy="18" r="3.56" fill="#292F33"/><circle cx="7.91" cy="15.44" r="1.43" fill="#F5F8FA"/><ellipse cx="27.23" cy="18" fill="#F5F8FA" rx="7.95" ry="13.28"/><path fill="#E1E8ED" d="M27.23 32.03c-4.88 0-8.7-6.16-8.7-14.03s3.82-14.03 8.7-14.03 8.7 6.16 8.7 14.03-3.82 14.03-8.7 14.03zm0-26.56c-3.97 0-7.2 5.62-7.2 12.53 0 6.91 3.23 12.53 7.2 12.53s7.2-5.62 7.2-12.53-3.22-12.53-7.2-12.53z"/><circle cx="25" cy="18" r="4.96" fill="#8899A6"/><circle cx="25" cy="18" r="3.56" fill="#292F33"/><circle cx="26.32" cy="15.44" r="1.43" fill="#F5F8FA"/></svg>