<?xml version="1.0" encoding="utf-8"?><!--Uploaded to: SVG Repo, www.svgrepo.com, Generator: SVG Repo Mixer Tools--><svg xmlns="http://www.w3.org/2000/svg" width="800" height="800" fill="none" viewBox="0 0 24 24"><path fill="#1C274C" d="m20.98 12.19-.74-.13.74.13Zm-.71 4.08-.74-.13.74.13Zm-13.33 4.2-.75.07.75-.06Zm-.81-9.39.74-.06-.74.06Zm7.86-5.86.75.12-.75-.12Zm-.66 4.05.74.12-.74-.12Zm-6.63.4-.5-.56.5.57Zm1.44-1.23.49.57-.5-.57Zm2.38-3.66-.73-.18.73.18Zm.47-1.83.73.19-.73-.19Zm1.68-.89-.23.72.23-.72Zm.14.05.23-.71-.23.71ZM9.86 6.46l.66.36-.66-.36Zm4.04-3.21-.72.19.72-.2Zm-2.23-1.12-.32-.67.32.67Zm-7.7 19.34-.75.07.75-.07ZM3 10.23l.75-.06a.75.75 0 0 0-1.5.06H3Zm17.24 1.83-.7 4.08 1.47.25.7-4.08-1.47-.25Zm-7 9.19H8.6v1.5h4.64v-1.5Zm-5.56-.84-.8-9.39-1.5.13.81 9.4 1.5-.14Zm11.85-4.27a6.3 6.3 0 0 1-6.29 5.11v1.5a7.8 7.8 0 0 0 7.77-6.36l-1.48-.25ZM13.25 5.1l-.66 4.04 1.48.25.67-4.05-1.49-.24ZM7.2 10.25 8.63 9l-.98-1.14L6.2 9.11l.98 1.14Zm4.05-5.28.48-1.83-1.45-.38-.48 1.84 1.45.37Zm1.2-2.2.14.05.46-1.42-.14-.05-.46 1.43Zm-1.92 4.05c.32-.59.56-1.2.72-1.85L9.8 4.6a6.88 6.88 0 0 1-.59 1.5l1.32.72Zm2.06-4c.31.1.53.34.6.62l1.45-.38c-.2-.8-.81-1.41-1.59-1.66l-.46 1.42Zm-.86.32A.51.51 0 0 1 12 2.8l-.65-1.35c-.53.25-.93.73-1.08 1.3l1.45.38ZM12 2.8a.6.6 0 0 1 .44-.03l.46-1.43a2.1 2.1 0 0 0-1.55.1L12 2.82Zm2.15 8.17h5.18v-1.5h-5.18v1.5ZM4.72 21.41l-.97-11.24-1.5.13.97 11.24 1.5-.13Zm-.97.1V10.23h-1.5v11.28h1.5Zm-.53.03a.26.26 0 0 1 .27-.29v1.5c.72 0 1.3-.62 1.23-1.34l-1.5.13Zm11.52-16.2c.12-.76.08-1.54-.1-2.28l-1.46.38c.14.54.17 1.1.07 1.66l1.49.24ZM8.6 21.25a.92.92 0 0 1-.92-.84l-1.49.13a2.42 2.42 0 0 0 2.4 2.21v-1.5Zm.03-12.24a7.88 7.88 0 0 0 1.9-2.2l-1.33-.7c-.35.65-.9 1.2-1.55 1.76l.98 1.14Zm13.08 3.3a2.42 2.42 0 0 0-2.38-2.83v1.5c.57 0 1 .52.9 1.08l1.48.25ZM3.5 21.25c.14 0 .26.12.26.26h-1.5c0 .69.55 1.24 1.24 1.24v-1.5Zm9.1-12.1c-.16.96.59 1.83 1.56 1.83v-1.5a.08.08 0 0 1-.08-.1l-1.48-.24Zm-5.72 1.87c-.02-.3.1-.58.32-.77L6.2 9.1c-.59.5-.9 1.27-.83 2.04l1.5-.13Z"/></svg>